<?xml version="1.0" encoding="UTF-8" standalone="no"?>
<!DOCTYPE svg PUBLIC "-//W3C//DTD SVG 1.1//EN" "http://www.w3.org/Graphics/SVG/1.1/DTD/svg11.dtd">
<svg width="100%" height="100%" viewBox="0 0 945 945" version="1.1" xmlns="http://www.w3.org/2000/svg" xmlns:xlink="http://www.w3.org/1999/xlink" xml:space="preserve" xmlns:serif="http://www.serif.com/" style="fill-rule:evenodd;clip-rule:evenodd;stroke-linejoin:round;stroke-miterlimit:2;">
    <g transform="matrix(1,0,0,1,-487.71,-67.72)">
        <path d="M922.87,533.13L504.28,114.54C498.17,108.42 487.71,112.76 487.71,121.4L487.71,958.55C487.71,967.2 498.17,971.53 504.28,965.41L922.87,546.86C926.66,543.07 926.66,536.92 922.87,533.13Z" style="fill-rule:nonzero;"/>
        <path d="M953.13,502.83C956.92,506.62 963.07,506.62 966.86,502.83L1385.45,84.29C1391.57,78.17 1387.24,67.72 1378.59,67.72L541.44,67.72C532.79,67.72 528.46,78.18 534.58,84.29L953.13,502.84L953.13,502.83Z" style="fill-rule:nonzero;"/>
        <path d="M953.15,577.12L790.94,739.37C784.83,745.49 789.16,755.94 797.8,755.94L1122.27,755.94C1130.92,755.94 1135.25,745.48 1129.13,739.37L966.88,577.12C963.09,573.33 956.94,573.33 953.15,577.12Z" style="fill-rule:nonzero;"/>
        <path d="M1415.72,114.54L1234.52,295.78C1230.73,299.57 1230.73,305.72 1234.52,309.51L1415.72,490.71C1421.83,496.82 1432.29,492.49 1432.29,483.84L1432.29,121.4C1432.29,112.75 1421.83,108.42 1415.72,114.54Z" style="fill-rule:nonzero;"/>
        <path d="M1122.26,798.77L735.56,798.77C732.99,798.77 730.52,799.79 728.7,801.61L534.6,995.71C528.49,1001.82 532.82,1012.28 541.46,1012.28L928.16,1012.28C930.73,1012.28 933.2,1011.26 935.02,1009.44L1129.12,815.34C1135.23,809.23 1130.9,798.77 1122.26,798.77Z" style="fill-rule:nonzero;"/>
        <path d="M1415.7,589.29L1009.29,995.7C1003.18,1001.81 1007.51,1012.27 1016.15,1012.27L1422.56,1012.27C1427.92,1012.27 1432.27,1007.92 1432.27,1002.56L1432.27,596.15C1432.27,587.5 1421.81,583.17 1415.7,589.29Z" style="fill-rule:nonzero;"/>
        <path d="M1204.23,740.19L1397.6,546.86C1401.39,543.07 1401.39,536.92 1397.6,533.13L1204.23,339.76C1200.44,335.97 1194.29,335.97 1190.5,339.76L997.17,533.13C993.38,536.92 993.38,543.07 997.17,546.86L1190.5,740.19C1194.29,743.98 1200.44,743.98 1204.23,740.19Z" style="fill-rule:nonzero;"/>
    </g>
</svg>
