<?xml version="1.0" encoding="UTF-8"?>
<svg id="Layer_2" data-name="Layer 2" xmlns="http://www.w3.org/2000/svg" viewBox="0 0 932.14 158.05">
  <defs>
    <style>
      .cls-1 {
        fill: #fff;
      }
    </style>
  </defs>
  <g id="Layer_1-2" data-name="Layer 1">
    <g>
      <path class="cls-1" d="M72.81,77.87L2.77,7.83c-1.02-1.02-2.77-.3-2.77,1.15V149.06c0,1.45,1.75,2.17,2.77,1.15L72.81,80.18c.64-.64,.64-1.66,0-2.3h0Z"/>
      <path class="cls-1" d="M77.87,72.81c.64,.64,1.66,.64,2.3,0L150.2,2.78c1.02-1.02,.3-2.78-1.15-2.78H8.97c-1.45,0-2.17,1.75-1.15,2.77L77.87,72.81Z"/>
      <path class="cls-1" d="M77.87,85.23l-27.14,27.15c-1.02,1.02-.3,2.77,1.15,2.77h54.29c1.45,0,2.17-1.75,1.15-2.77l-27.15-27.15c-.64-.64-1.66-.64-2.3,0Z"/>
      <path class="cls-1" d="M155.28,7.83l-30.32,30.33c-.64,.64-.64,1.66,0,2.3l30.32,30.32c1.02,1.02,2.77,.3,2.77-1.15V8.99c0-1.45-1.75-2.17-2.78-1.15h0Z"/>
      <path class="cls-1" d="M106.17,122.32H41.46c-.43,0-.84,.17-1.15,.48L7.83,155.28c-1.02,1.02-.3,2.77,1.15,2.77H73.69c.43,0,.84-.17,1.15-.48l32.48-32.48c1.02-1.02,.3-2.77-1.15-2.77Z"/>
      <path class="cls-1" d="M155.28,87.26l-68.01,68.02c-1.02,1.02-.3,2.77,1.15,2.77h68.01c.9,0,1.63-.73,1.63-1.63V88.41c0-1.45-1.75-2.17-2.77-1.15Z"/>
      <path class="cls-1" d="M119.88,112.52l32.35-32.35c.64-.64,.64-1.66,0-2.3l-32.35-32.35c-.64-.64-1.66-.64-2.3,0l-32.35,32.35c-.64,.64-.64,1.66,0,2.3l32.35,32.35c.64,.64,1.66,.64,2.3,0Z"/>
    </g>
    <g>
      <path class="cls-1" d="M272.12,92.59h26.42c-1.52,9.12-5.44,15.87-11.78,20.24-6.33,4.37-13.81,6.56-22.41,6.56-12.54,0-22.26-3.58-29.16-10.73-6.9-7.16-10.36-17.26-10.36-30.3,.25-12.4,3.45-22.2,9.59-29.34,6.14-7.15,15.67-10.73,28.59-10.73,8.1,0,15.27,1.87,21.46,5.61,6.21,3.73,10.33,9.91,12.35,18.53l15.2-2.09c-2.53-12.04-7.85-21.18-15.95-27.45-8.1-6.26-19.13-9.41-33.06-9.41-10.65,0-19.95,2.19-27.92,6.56-7.98,4.37-14.21,10.7-18.71,19-4.5,8.3-6.81,18.4-6.93,30.3-.13,11.9,1.91,21.95,6.08,30.11,4.18,8.17,10.09,14.41,17.76,18.71,7.67,4.3,16.69,6.46,27.07,6.46,7.72,0,14.28-1.27,19.67-3.8,5.37-2.53,9.63-5.61,12.72-9.21,3.1-3.62,5.29-7.06,6.56-10.36h.38l3.62,21.09h10.83v-51.67h-41.98v11.97l-.02-.05Z"/>
      <path class="cls-1" d="M378.87,70.54l-.38,.18c-.75-2.03-2.13-4.3-4.08-6.85-1.96-2.53-4.72-4.79-8.27-6.75-3.55-1.96-8.17-2.95-13.86-2.95-10.65,0-18.36,3.73-23.18,11.22-4.82,7.47-7.21,17.09-7.21,28.88,0,7.73,1.04,14.6,3.13,20.61,2.09,6.01,5.36,10.73,9.78,14.16,4.44,3.41,10.26,5.12,17.48,5.12,5.57,0,10.13-.92,13.68-2.76,3.55-1.84,6.33-3.98,8.35-6.46s3.41-4.65,4.18-6.56l.38,.18,2.66,13.68h13.49V54.17h-16.15v16.34l.02,.03Zm-4.65,42.84c-2.98,4.87-8.2,7.32-15.67,7.32s-13.17-2.53-16.34-7.6c-3.16-5.07-4.75-11.33-4.75-18.82,0-4.8,.67-9.17,1.99-13.11,1.32-3.92,3.52-7.03,6.56-9.31,3.05-2.28,7.21-3.41,12.54-3.41,7.21,0,12.37,2.31,15.48,6.93,3.1,4.62,4.65,10.98,4.65,19.1s-1.49,14.03-4.47,18.9Z"/>
      <path class="cls-1" d="M516.03,75.78c-.7-3.62-1.89-7.03-3.62-10.26-1.71-3.23-4.12-5.86-7.21-7.88-3.1-2.03-7.13-3.05-12.07-3.05-4.55,0-8.42,.79-11.58,2.38s-5.72,3.48-7.7,5.69c-1.96,2.21-3.45,4.27-4.47,6.18-1.02,1.89-1.59,3.16-1.71,3.8h-.38c-1.39-4.8-3.7-9.02-6.93-12.64-3.23-3.62-8.2-5.41-14.91-5.41-4.44,0-8.17,.79-11.22,2.38s-5.47,3.48-7.32,5.69c-1.84,2.21-3.16,4.27-3.98,6.18-.82,1.89-1.36,3.16-1.61,3.8h-.38l-.38-18.05h-13.68v77.7h14.06v-37.04c0-4.44,.57-8.7,1.71-12.82,1.14-4.12,3.05-7.43,5.69-9.98,2.66-2.53,6.39-3.8,11.22-3.8,4.05,0,7.18,.92,9.41,2.76,2.21,1.84,3.8,4.18,4.75,7.03,.95,2.85,1.52,5.69,1.71,8.55,.18,2.85,.28,5.22,.28,7.13v38.18h13.49v-37.04c0-4.44,.57-8.7,1.71-12.82,1.14-4.12,3.05-7.43,5.69-9.98,2.66-2.53,6.39-3.8,11.22-3.8,4.05,0,7.18,.92,9.41,2.76,2.21,1.84,3.8,4.18,4.75,7.03,.95,2.85,1.52,5.69,1.71,8.55,.18,2.85,.28,5.22,.28,7.13v38.18h13.49v-38c0-2.16-.07-4.87-.18-8.17-.13-3.3-.54-6.75-1.24-10.36v-.02Z"/>
      <path class="cls-1" d="M599.69,90.31c-.25-7.35-1.96-13.71-5.12-19.1-3.16-5.37-7.45-9.56-12.82-12.54-5.39-2.98-11.43-4.47-18.15-4.47-7.85,0-14.6,1.77-20.24,5.32s-9.94,8.35-12.92,14.45c-2.98,6.08-4.4,12.86-4.27,20.32,0,6.71,1.32,13.11,3.98,19.18,2.66,6.08,6.78,11.05,12.35,14.91,5.57,3.87,12.72,5.79,21.46,5.79,10.26,0,18.5-2.7,24.69-8.07,6.21-5.37,9.88-12.12,11.01-20.22h-15.38c-.89,4.55-3.2,8.2-6.93,10.93-3.73,2.73-8.27,4.08-13.58,4.08-7.1,0-12.64-2.24-16.62-6.75s-5.98-10.98-5.98-19.47h58.71c-.13-2.53-.18-3.98-.18-4.37l-.02-.02Zm-57.94-2.85c.25-2.78,1.1-5.72,2.56-8.84,1.46-3.1,3.67-5.76,6.65-7.98,2.98-2.21,7.06-3.33,12.25-3.33,4.18,0,7.6,.75,10.26,2.28,2.66,1.52,4.72,3.38,6.18,5.61,1.46,2.21,2.49,4.47,3.13,6.75s1,4.12,1.14,5.51h-42.17v.02Z"/>
      <path class="cls-1" d="M695.21,49.08c-5.44-7.85-13.07-13.78-22.9-17.76-9.81-3.98-21.31-5.99-34.48-5.99h-28.88v106.95h28.88c13.17,0,24.66-1.52,34.48-4.55,9.81-3.05,17.44-8.45,22.9-16.24,5.44-7.78,8.17-18.71,8.17-32.78,0-11.9-2.73-21.78-8.17-29.63Zm-14.06,54.91c-3.68,5.83-8.87,9.78-15.58,11.87s-14.56,3.13-23.55,3.13h-17.29V39.01h17.29c13.54,0,24.37,3.26,32.49,9.78,8.1,6.53,12.15,16.44,12.15,29.73,0,11.15-1.84,19.64-5.51,25.46v.02Z"/>
      <path class="cls-1" d="M736.24,25.33l-37.9,106.95h16.72l10.26-31.92h48.46l10.26,31.92h16.91l-38.67-106.95h-26.05Zm-6.75,62.51l20.05-55.86,20.05,55.86h-40.11Z"/>
      <path class="cls-1" d="M849.31,23.44c-11.78,0-21.56,2.31-29.34,6.93-7.78,4.62-13.61,11.08-17.48,19.38-3.87,8.3-5.79,18.08-5.79,29.34,0,17.09,4.5,30.62,13.49,40.56,8.99,9.94,22.03,14.91,39.14,14.91,11.4,0,20.99-2.28,28.78-6.85,7.78-4.55,13.68-11.05,17.66-19.47,3.98-8.42,5.99-18.15,5.99-29.16,0-16.97-4.47-30.5-13.39-40.56-8.92-10.06-21.95-15.1-39.04-15.1h-.02Zm27.55,84.74c-6.21,7.47-15.45,11.22-27.74,11.22-8.35,0-15.3-1.67-20.81-5.04-5.51-3.35-9.59-8.1-12.25-14.25-2.66-6.14-3.98-13.14-3.98-20.99,0-12.54,3.13-22.48,9.41-29.83,6.28-7.35,15.48-11.01,27.64-11.01s21.69,3.83,27.84,11.5c6.14,7.67,9.21,17.44,9.21,29.34s-3.1,21.59-9.31,29.06Z"/>
      <path class="cls-1" d="M919.97,110.17c-6.85,0-12.24,5.56-12.24,12.2v.07c0,6.65,5.32,12.14,12.17,12.14s12.24-5.56,12.24-12.2v-.07c0-6.65-5.32-12.14-12.17-12.14Zm10.08,12.2c0,5.59-4.35,10.16-10.13,10.16s-10.08-4.52-10.08-10.11v-.07c0-5.59,4.35-10.16,10.13-10.16s10.08,4.52,10.08,10.11v.07Z"/>
      <path class="cls-1" d="M923.9,124.76c-.4,0-.67,.17-.87,.33-.84,.7-1.69,1.1-2.86,1.1-2.19,0-3.72-1.82-3.72-3.98v-.07c0-2.19,1.56-3.98,3.72-3.98,1,0,1.96,.4,2.66,.94,.3,.23,.64,.37,.94,.37,.77,0,1.42-.64,1.42-1.46,0-.54-.27-.94-.64-1.22-1.07-.8-2.33-1.36-4.39-1.36-3.98,0-6.75,3.03-6.75,6.71v.07c0,3.72,2.83,6.65,6.65,6.65,2.19,0,3.55-.67,4.79-1.79,.23-.2,.44-.54,.44-.97,0-.74-.64-1.39-1.39-1.39v.05Z"/>
    </g>
  </g>
</svg>